<?xml version="1.0" encoding="UTF-8"?>
<svg id="Capa_2" data-name="Capa 2" xmlns="http://www.w3.org/2000/svg" viewBox="0 0 187.11 38.45">
  <defs>
    <style>
      .cls-1 {
        fill: #1a428a;
      }

      .cls-2 {
        fill: #858585;
      }

      .cls-3 {
        fill: #008996;
      }
    </style>
  </defs>
  <g id="GUIAS">
    <g>
      <g>
        <path class="cls-2" d="M60.49,7.13h3.7v15.97h-3.7V7.13Z"/>
        <path class="cls-2" d="M82.62,7.13v15.97h-3.03l-7.96-9.69v9.69h-3.65V7.13h3.06l7.94,9.69V7.13h3.65Z"/>
        <path class="cls-2" d="M86.4,7.13h7.25c1.73,0,3.27.33,4.6.99,1.33.66,2.36,1.59,3.1,2.79.74,1.2,1.11,2.6,1.11,4.2s-.37,3-1.11,4.2c-.74,1.2-1.77,2.13-3.1,2.79-1.33.66-2.86.99-4.6.99h-7.25V7.13ZM93.47,20.07c1.6,0,2.87-.44,3.82-1.33.95-.89,1.43-2.09,1.43-3.62s-.48-2.73-1.43-3.62c-.95-.89-2.22-1.33-3.82-1.33h-3.38v9.9h3.38Z"/>
        <path class="cls-2" d="M115.53,19.68h-7.41l-1.41,3.42h-3.79l7.12-15.97h3.65l7.14,15.97h-3.88l-1.41-3.42ZM114.37,16.87l-2.53-6.11-2.53,6.11h5.06Z"/>
        <path class="cls-2" d="M123.91,21.48c-1.27-1.26-1.9-3.06-1.9-5.41V7.13h3.7v8.8c0,2.86,1.19,4.29,3.56,4.29,1.16,0,2.04-.35,2.65-1.04.61-.69.91-1.78.91-3.25V7.13h3.65v8.94c0,2.34-.64,4.14-1.9,5.41-1.27,1.26-3.04,1.89-5.33,1.89s-4.06-.63-5.33-1.89Z"/>
        <path class="cls-2" d="M143.15,10.14h-5.11v-3.01h13.91v3.01h-5.11v12.96h-3.7v-12.96Z"/>
        <path class="cls-2" d="M156.96,22.3c-1.33-.71-2.37-1.7-3.13-2.95-.75-1.25-1.13-2.66-1.13-4.23s.38-2.98,1.13-4.23c.75-1.25,1.79-2.24,3.13-2.95,1.33-.71,2.82-1.07,4.48-1.07s3.15.36,4.47,1.07c1.32.71,2.36,1.7,3.12,2.95.76,1.25,1.14,2.67,1.14,4.23s-.38,2.98-1.14,4.23c-.76,1.25-1.8,2.24-3.12,2.95-1.32.71-2.81,1.07-4.47,1.07s-3.15-.36-4.48-1.07ZM164,19.58c.76-.43,1.36-1.04,1.79-1.81.43-.78.65-1.66.65-2.65s-.22-1.87-.65-2.65c-.43-.78-1.03-1.38-1.79-1.81-.76-.43-1.61-.65-2.55-.65s-1.79.22-2.55.65c-.76.43-1.36,1.04-1.79,1.81-.43.78-.65,1.66-.65,2.65s.22,1.87.65,2.65c.43.78,1.03,1.38,1.79,1.81.76.43,1.61.65,2.55.65s1.79-.22,2.55-.65Z"/>
        <path class="cls-2" d="M183.14,23.1l-3.08-4.45h-3.4v4.45h-3.7V7.13h6.91c1.41,0,2.64.24,3.68.71,1.04.47,1.84,1.14,2.41,2.01.56.87.84,1.89.84,3.08s-.29,2.21-.86,3.07c-.57.86-1.38,1.52-2.43,1.97l3.58,5.13h-3.97ZM182.2,10.86c-.58-.48-1.42-.72-2.53-.72h-3.01v5.57h3.01c1.11,0,1.95-.24,2.53-.73.58-.49.87-1.17.87-2.05s-.29-1.59-.87-2.06Z"/>
      </g>
      <g>
        <path class="cls-3" d="M8.81,4.54c.72.23,1.41.44,2.11.67,3.13,1,5.76,2.8,8.13,5.03,2.17,2.05,4,4.4,6.02,6.58,1.65,1.79,3.43,3.39,5.75,4.3,5.04,1.99,10.71-.87,12.07-6.12,1.3-5.02-2.42-9.95-7.6-9.94-4.58,0-6.79,4.16-6.03,7.16.5,1.96,2.2,3.33,4.21,3.44,1.37.07,2.42-.53,3.13-1.68.56-.92.72-1.87.12-2.86-.63-1.04-1.91-1.46-2.89-.94-.29.15-.52.36-.67.66-.15.29-.12.75-.55.8-.71.09-1.44.16-2.13-.04-.43-.13-.31-.56-.24-.89.57-2.87,3.64-4.46,6.36-3.28,1.83.79,2.99,2.17,3.25,4.12.31,2.32-.49,4.33-2.4,5.74-3.57,2.64-8.85.98-10.59-3.27-2.09-5.09,1.69-11.18,7.19-11.75,5.57-.58,10.73,3.12,11.75,8.61.64,3.44-.19,6.57-2.39,9.34-4.23,5.32-12.04,5.81-17.4,1.43-2.28-1.86-4.14-4.11-6.07-6.3-2.9-3.3-6.04-6.29-10.41-7.58-2.4-.71-4.85-.88-7.33-.84-.56,0-1.12,0-1.67,0-.18,0-.41.04-.5-.16-.11-.26.12-.39.28-.51,1.42-1.11,2.78-2.31,4.39-3.16C12.04-.83,19.52-.96,27.1,2.36c1.06.46,1.05.55.26,1.39-1.19,1.25-1.18,1.25-2.8.65-4.96-1.83-9.95-2.02-14.99-.32-.26.09-.59.08-.76.45Z"/>
        <g>
          <path class="cls-1" d="M7.82,25.5c0-5.17,3.47-9.82,8.41-11.26.48-.14.87-.12,1.22.28.43.5.9.98,1.34,1.47.41.46.35.71-.31.81-4.18.62-7.02,3.42-7.7,7.57-.81,4.92,3.74,9.62,8.66,8.96,3-.4,5.33-3.13,5.28-6.16-.06-3.22-3.74-5.45-6.39-3.87-1.56.93-2.01,3.01-.97,4.34.85,1.08,3.05,1.19,3.4-.43.08-.38.35-.51.7-.51.37,0,.74-.01,1.12,0,1.05.01,1.26.3.97,1.33-.84,2.96-4.25,4.28-6.95,2.69-2.92-1.73-3.59-5.55-1.51-8.31,2.98-3.94,8.24-2.78,10.63-.05,3.42,3.89,1.79,10.11-2.57,12.68-4.11,2.43-9.97.87-12.69-2.54-1.81-2.27-2.64-4.41-2.64-7Z"/>
          <path class="cls-1" d="M45.26,33.92c-1.2-.33-2.19-.6-3.16-.97-3.52-1.33-6.33-3.62-8.87-6.31-.14-.15-.34-.31-.25-.54.09-.25.35-.21.55-.21.85-.01,1.7.04,2.54-.1.36-.06.59.17.82.4,3.74,3.61,8.22,5.34,13.41,5.29,1.01-.01,2.02,0,3.03,0,.21,0,.47-.03.55.21.08.25-.16.36-.32.5-3.75,3.23-8.02,5.37-12.95,6.04-4.41.6-8.68.03-12.79-1.69-.51-.21-1.02-.45-1.53-.68-.5-.23-.52-.54-.15-.92.33-.34.68-.68.96-1.06.31-.42.61-.48,1.09-.28,2.81,1.18,5.72,1.92,8.81,1.94,2.66.01,5.23-.42,7.73-1.31.12-.04.22-.12.52-.29Z"/>
        </g>
      </g>
      <g>
        <path class="cls-2" d="M60.5,29.67h.77v3.33h-.77v-3.33Z"/>
        <path class="cls-2" d="M65.3,29.67v3.33h-.63l-1.66-2.02v2.02h-.76v-3.33h.64l1.65,2.02v-2.02h.76Z"/>
        <path class="cls-2" d="M66.61,32.95c-.25-.07-.44-.16-.59-.28l.26-.58c.14.1.31.19.51.25.2.06.39.1.59.1.22,0,.38-.03.49-.1.1-.07.16-.15.16-.26,0-.08-.03-.15-.09-.2-.06-.05-.14-.09-.24-.13-.1-.03-.23-.07-.39-.1-.25-.06-.46-.12-.62-.18-.16-.06-.3-.16-.42-.29-.12-.13-.17-.31-.17-.53,0-.19.05-.37.16-.53.1-.16.26-.28.47-.37.21-.09.47-.14.77-.14.21,0,.42.03.62.08.2.05.38.12.53.22l-.24.59c-.31-.17-.61-.26-.92-.26-.22,0-.37.03-.48.1-.1.07-.15.16-.15.28s.06.2.18.25c.12.06.3.11.54.16.25.06.46.12.62.18.16.06.3.16.42.29.12.13.17.31.17.53,0,.19-.05.36-.16.52-.11.16-.27.28-.48.37-.21.09-.47.14-.78.14-.26,0-.52-.04-.76-.11Z"/>
        <path class="cls-2" d="M70.15,30.3h-1.07v-.63h2.9v.63h-1.07v2.7h-.77v-2.7Z"/>
        <path class="cls-2" d="M72.59,29.67h.77v3.33h-.77v-3.33Z"/>
        <path class="cls-2" d="M75.02,30.3h-1.07v-.63h2.9v.63h-1.07v2.7h-.77v-2.7Z"/>
        <path class="cls-2" d="M77.78,32.66c-.26-.26-.4-.64-.4-1.13v-1.86h.77v1.84c0,.6.25.89.74.89.24,0,.42-.07.55-.22.13-.14.19-.37.19-.68v-1.84h.76v1.86c0,.49-.13.86-.4,1.13-.26.26-.63.39-1.11.39s-.85-.13-1.11-.39Z"/>
        <path class="cls-2" d="M81.98,30.3h-1.07v-.63h2.9v.63h-1.07v2.7h-.77v-2.7Z"/>
        <path class="cls-2" d="M85.05,32.83c-.28-.15-.49-.35-.65-.62-.16-.26-.24-.56-.24-.88s.08-.62.24-.88c.16-.26.37-.47.65-.62.28-.15.59-.22.93-.22s.66.07.93.22c.28.15.49.35.65.62.16.26.24.56.24.88s-.08.62-.24.88c-.16.26-.38.47-.65.62-.28.15-.59.22-.93.22s-.66-.07-.93-.22ZM86.51,32.27c.16-.09.28-.22.37-.38.09-.16.14-.35.14-.55s-.05-.39-.14-.55c-.09-.16-.21-.29-.37-.38-.16-.09-.34-.14-.53-.14s-.37.05-.53.14c-.16.09-.28.22-.37.38-.09.16-.14.35-.14.55s.05.39.14.55c.09.16.21.29.37.38.16.09.34.14.53.14s.37-.05.53-.14Z"/>
        <path class="cls-2" d="M93.16,29.67v3.33h-.63l-1.66-2.02v2.02h-.76v-3.33h.64l1.65,2.02v-2.02h.76Z"/>
        <path class="cls-2" d="M96.33,32.29h-1.55l-.29.71h-.79l1.48-3.33h.76l1.49,3.33h-.81l-.29-.71ZM96.09,31.7l-.53-1.27-.53,1.27h1.06Z"/>
        <path class="cls-2" d="M98.6,32.84c-.27-.15-.49-.35-.65-.61-.16-.26-.24-.56-.24-.89s.08-.63.24-.89c.16-.26.37-.47.65-.61.27-.15.58-.22.92-.22.29,0,.55.05.78.15.23.1.43.25.59.44l-.49.46c-.23-.26-.5-.39-.84-.39-.21,0-.39.05-.55.14-.16.09-.29.22-.38.38-.09.16-.14.35-.14.55s.05.39.14.55c.09.16.22.29.38.38.16.09.35.14.55.14.33,0,.61-.13.84-.39l.49.46c-.16.19-.35.34-.59.44-.23.1-.5.15-.78.15-.34,0-.65-.07-.92-.22Z"/>
        <path class="cls-2" d="M101.6,29.67h.77v3.33h-.77v-3.33Z"/>
        <path class="cls-2" d="M104.03,32.83c-.28-.15-.49-.35-.65-.62-.16-.26-.23-.56-.23-.88s.08-.62.23-.88c.16-.26.37-.47.65-.62s.59-.22.93-.22.66.07.93.22c.28.15.49.35.65.62.16.26.24.56.24.88s-.08.62-.24.88c-.16.26-.38.47-.65.62-.28.15-.59.22-.93.22s-.66-.07-.93-.22ZM105.49,32.27c.16-.09.28-.22.37-.38.09-.16.14-.35.14-.55s-.05-.39-.14-.55c-.09-.16-.21-.29-.37-.38-.16-.09-.34-.14-.53-.14s-.37.05-.53.14c-.16.09-.28.22-.37.38-.09.16-.14.35-.14.55s.05.39.14.55c.09.16.21.29.37.38.16.09.34.14.53.14s.37-.05.53-.14Z"/>
        <path class="cls-2" d="M110.61,29.67v3.33h-.63l-1.66-2.02v2.02h-.76v-3.33h.64l1.65,2.02v-2.02h.76Z"/>
        <path class="cls-2" d="M113.78,32.29h-1.55l-.29.71h-.79l1.48-3.33h.76l1.49,3.33h-.81l-.29-.71ZM113.53,31.7l-.53-1.27-.53,1.27h1.06Z"/>
        <path class="cls-2" d="M115.42,29.67h.77v2.7h1.67v.63h-2.44v-3.33Z"/>
        <path class="cls-2" d="M120.02,29.67h1.51c.36,0,.68.07.96.21.28.14.49.33.65.58.15.25.23.54.23.87s-.08.62-.23.87c-.15.25-.37.44-.65.58-.28.14-.6.21-.96.21h-1.51v-3.33ZM121.49,32.37c.33,0,.6-.09.8-.28.2-.19.3-.44.3-.75s-.1-.57-.3-.75c-.2-.19-.46-.28-.8-.28h-.7v2.06h.7Z"/>
        <path class="cls-2" d="M126.71,32.38v.62h-2.58v-3.33h2.52v.62h-1.75v.72h1.55v.6h-1.55v.77h1.81Z"/>
        <path class="cls-2" d="M127.51,29.67h.77v2.7h1.67v.63h-2.44v-3.33Z"/>
        <path class="cls-2" d="M132.11,29.67h1.51c.36,0,.68.07.96.21.28.14.49.33.65.58.15.25.23.54.23.87s-.08.62-.23.87c-.15.25-.37.44-.65.58-.28.14-.6.21-.96.21h-1.51v-3.33ZM133.59,32.37c.33,0,.6-.09.8-.28.2-.19.3-.44.3-.75s-.1-.57-.3-.75c-.2-.19-.46-.28-.8-.28h-.7v2.06h.7Z"/>
        <path class="cls-2" d="M138.81,32.38v.62h-2.58v-3.33h2.52v.62h-1.75v.72h1.55v.6h-1.55v.77h1.81Z"/>
        <path class="cls-2" d="M141.73,33l-.64-.93h-.71v.93h-.77v-3.33h1.44c.29,0,.55.05.77.15.22.1.38.24.5.42.12.18.18.39.18.64s-.06.46-.18.64c-.12.18-.29.32-.51.41l.75,1.07h-.83ZM141.54,30.45c-.12-.1-.3-.15-.53-.15h-.63v1.16h.63c.23,0,.41-.05.53-.15.12-.1.18-.24.18-.43s-.06-.33-.18-.43Z"/>
        <path class="cls-2" d="M145.87,32.38v.62h-2.58v-3.33h2.52v.62h-1.75v.72h1.55v.6h-1.55v.77h1.81Z"/>
        <path class="cls-2" d="M147.34,32.84c-.27-.15-.49-.35-.65-.61-.16-.26-.24-.56-.24-.89s.08-.63.24-.89c.16-.26.37-.47.65-.61.27-.15.58-.22.92-.22.29,0,.55.05.78.15.23.1.43.25.59.44l-.49.46c-.23-.26-.5-.39-.84-.39-.21,0-.39.05-.55.14-.16.09-.29.22-.38.38-.09.16-.14.35-.14.55s.05.39.14.55c.09.16.22.29.38.38.16.09.35.14.55.14.33,0,.61-.13.84-.39l.49.46c-.16.19-.36.34-.59.44-.23.1-.5.15-.78.15-.34,0-.65-.07-.92-.22Z"/>
        <path class="cls-2" d="M153.39,29.67v3.33h-.77v-1.36h-1.51v1.36h-.77v-3.33h.77v1.31h1.51v-1.31h.77Z"/>
        <path class="cls-2" d="M155.05,32.83c-.28-.15-.49-.35-.65-.62-.16-.26-.24-.56-.24-.88s.08-.62.24-.88c.16-.26.37-.47.65-.62s.59-.22.93-.22.66.07.93.22c.28.15.49.35.65.62.16.26.24.56.24.88s-.08.62-.24.88c-.16.26-.38.47-.65.62-.28.15-.59.22-.93.22s-.66-.07-.93-.22ZM156.52,32.27c.16-.09.28-.22.37-.38.09-.16.14-.35.14-.55s-.05-.39-.14-.55c-.09-.16-.21-.29-.37-.38-.16-.09-.34-.14-.53-.14s-.37.05-.53.14c-.16.09-.28.22-.37.38-.09.16-.14.35-.14.55s.05.39.14.55c.09.16.21.29.37.38.16.09.34.14.53.14s.37-.05.53-.14Z"/>
        <path class="cls-2" d="M160.11,29.67h1.51c.36,0,.68.07.96.21.28.14.49.33.65.58.15.25.23.54.23.87s-.08.62-.23.87c-.15.25-.37.44-.65.58-.28.14-.6.21-.96.21h-1.51v-3.33ZM161.59,32.37c.33,0,.6-.09.8-.28.2-.19.3-.44.3-.75s-.1-.57-.3-.75c-.2-.19-.46-.28-.8-.28h-.7v2.06h.7Z"/>
        <path class="cls-2" d="M166.81,32.38v.62h-2.58v-3.33h2.52v.62h-1.75v.72h1.55v.6h-1.55v.77h1.81Z"/>
        <path class="cls-2" d="M171.34,32.29h-1.55l-.29.71h-.79l1.48-3.33h.76l1.49,3.33h-.81l-.29-.71ZM171.1,31.7l-.53-1.27-.53,1.27h1.06Z"/>
        <path class="cls-2" d="M173.28,32.66c-.26-.26-.4-.64-.4-1.13v-1.86h.77v1.84c0,.6.25.89.74.89.24,0,.42-.07.55-.22.13-.14.19-.37.19-.68v-1.84h.76v1.86c0,.49-.13.86-.4,1.13-.26.26-.63.39-1.11.39s-.85-.13-1.11-.39Z"/>
        <path class="cls-2" d="M177.48,30.3h-1.06v-.63h2.9v.63h-1.06v2.7h-.77v-2.7Z"/>
        <path class="cls-2" d="M180.55,32.83c-.28-.15-.49-.35-.65-.62-.16-.26-.24-.56-.24-.88s.08-.62.24-.88c.16-.26.37-.47.65-.62s.59-.22.93-.22.66.07.93.22c.28.15.49.35.65.62.16.26.24.56.24.88s-.08.62-.24.88c-.16.26-.38.47-.65.62-.28.15-.59.22-.93.22s-.66-.07-.93-.22ZM182.01,32.27c.16-.09.28-.22.37-.38.09-.16.14-.35.14-.55s-.05-.39-.14-.55c-.09-.16-.21-.29-.37-.38-.16-.09-.34-.14-.53-.14s-.37.05-.53.14c-.16.09-.28.22-.37.38-.09.16-.14.35-.14.55s.05.39.14.55c.09.16.21.29.37.38.16.09.34.14.53.14s.37-.05.53-.14Z"/>
        <path class="cls-2" d="M186.19,33l-.64-.93h-.71v.93h-.77v-3.33h1.44c.29,0,.55.05.77.15.22.1.38.24.5.42.12.18.18.39.18.64s-.06.46-.18.64c-.12.18-.29.32-.51.41l.75,1.07h-.83ZM186,30.45c-.12-.1-.3-.15-.53-.15h-.63v1.16h.63c.23,0,.41-.05.53-.15.12-.1.18-.24.18-.43s-.06-.33-.18-.43Z"/>
      </g>
    </g>
  </g>
</svg>